# xmcd
#
# Track frame offsets: 
#        182
#        19232
#        40935
#        58657
#        76417
#        98365
#        116535
#        136972
#        156235
#        175957
#
# Disc length: 2643 seconds
#
# Revision: 2
# Processed by: cddbd v1.5.1PL2 Copyright (c) Steve Scherf et al.
# Submitted via: ExactAudioCopy v0.95b3
#
DISCID=790a510a
DTITLE=Bill Kinnear and Carlos del Junco - Blues
DYEAR=1993
DGENRE=Blues
TTITLE0=You Gotta Move
TTITLE1=Peepin' and Hidin'
TTITLE2=Someday Baby
TTITLE3=Sportin' Life
TTITLE4=Banty Rooster
TTITLE5=Fishin' Blues
TTITLE6=Gravel Road Blues
TTITLE7=Rollin' and Tumblin'
TTITLE8=Come On In My Kitchen
TTITLE9=Big Road Blues
EXTD=
EXTT0=
EXTT1=
EXTT2=
EXTT3=
EXTT4=
EXTT5=
EXTT6=
EXTT7=
EXTT8=
EXTT9=
PLAYORDER=
